<?xml version="1.0" encoding="iso-8859-1"?>
<!-- Generator: Adobe Illustrator 19.0.0, SVG Export Plug-In . SVG Version: 6.00 Build 0)  -->
<svg version="1.1" id="Layer_1" xmlns="http://www.w3.org/2000/svg" xmlns:xlink="http://www.w3.org/1999/xlink" x="0px" y="0px"
	 viewBox="0 0 512 512" style="enable-background:new 0 0 512 512;" xml:space="preserve">
<circle style="fill:#EAEAED;" cx="256" cy="256" r="256"/>

<path style="fill:#2ecc71;" d="M103.631,256c0-84.147,68.222-152.369,152.369-152.369S408.357,171.853,408.357,256
	S340.147,408.357,256,408.357S103.631,340.147,103.631,256z"/>
<g>
	<path style="fill:#F3F3F3;" d="M205.704,313.313v-0.012c-7.425-9.13-6.029-22.671,3.101-30.108l107.695-87.607
		c9.13-7.425,22.671-6.029,30.108,3.101l0,0c7.437,9.142,6.041,22.683-3.089,30.121l-107.708,87.607
		C226.682,323.839,213.142,322.443,205.704,313.313z"/>
	<path style="fill:#F3F3F3;" d="M168.48,234.033v-0.012c9.142-7.425,22.683-6.029,30.108,3.101l39.671,48.764
		c7.425,9.13,6.029,22.671-3.101,30.108l0,0c-9.142,7.425-22.683,6.029-30.108-3.101l-39.671-48.751
		C157.954,255.012,159.35,241.459,168.48,234.033z"/>
</g>
<g>
</g>
<g>
</g>
<g>
</g>
<g>
</g>
<g>
</g>
<g>
</g>
<g>
</g>
<g>
</g>
<g>
</g>
<g>
</g>
<g>
</g>
<g>
</g>
<g>
</g>
<g>
</g>
<g>
</g>
</svg>
