<svg height="480pt" viewBox="0 0 480 480" width="480pt" xmlns="http://www.w3.org/2000/svg"><path d="m432 240c0 106.039062-85.960938 192-192 192s-192-85.960938-192-192 85.960938-192 192-192 192 85.960938 192 192zm0 0" fill="#cfd2fc"/><path d="m240 480c-132.546875 0-240-107.453125-240-240s107.453125-240 240-240 240 107.453125 240 240c-.148438 132.484375-107.515625 239.851562-240 240zm0-464c-123.710938 0-224 100.289062-224 224s100.289062 224 224 224 224-100.289062 224-224c-.140625-123.652344-100.347656-223.859375-224-224zm0 0" fill="#8690fa"/><g fill="#5153ff"><path d="m240 360c-4.417969 0-8-3.582031-8-8v-224c0-4.417969 3.582031-8 8-8s8 3.582031 8 8v224c0 4.417969-3.582031 8-8 8zm0 0"/><path d="m352 248h-224c-4.417969 0-8-3.582031-8-8s3.582031-8 8-8h224c4.417969 0 8 3.582031 8 8s-3.582031 8-8 8zm0 0"/></g></svg>