<svg height="496pt" viewBox="0 -40 496 496" width="496pt" xmlns="http://www.w3.org/2000/svg"><path d="m188 8h184c64.066406 0 116 51.933594 116 116s-51.933594 116-116 116h-184c-64.066406 0-116-51.933594-116-116s51.933594-116 116-116zm0 0" fill="#1180EF"/><path d="m377.039062 0h-194.078124c-58.671876.0625-108.5625 42.828125-117.601563 100.800781v.078125c-40.0625 20.191406-65.3398438 61.21875-65.359375 106.082032v10.078124c.0703125 65.671876 53.289062 118.890626 118.960938 118.960938h63.199218l26.320313 75.441406c1.101562 3.210938 4.125 5.367188 7.519531 5.367188s6.417969-2.15625 7.519531-5.367188l26.402344-75.441406h63.117187c58.671876-.0625 108.5625-42.828125 117.601563-100.800781v-.078125c40.0625-20.191406 65.339844-61.21875 65.359375-106.082032v-10.078124c-.070312-65.671876-53.289062-118.8906255-118.960938-118.960938zm-64 320h-68.800781c-3.417969-.019531-6.46875 2.132812-7.597656 5.359375l-20.640625 59.199219-20.640625-59.199219c-1.117187-3.199219-4.128906-5.347656-7.519531-5.359375h-68.878906c-56.847657-.042969-102.917969-46.113281-102.960938-102.960938v-10.078124c-.011719-35.332032 18.113281-68.199219 48-87.039063v9.117187c.070312 65.671876 53.289062 118.890626 118.960938 118.960938h68.640624l28.636719.800781 28-.800781h68.800781c12.132813.019531 24.199219-1.84375 35.761719-5.519531-11.660156 45.582031-52.710937 77.480469-99.761719 77.519531zm166.960938-190.960938c.011719 35.332032-18.113281 68.199219-48 87.039063-5.164062 3.304687-10.628906 6.117187-16.320312 8.402344-12.265626 5-25.394532 7.554687-38.640626 7.519531h-69.039062l-27.761719.800781-28.398437-.800781h-68.878906c-56.847657-.042969-102.917969-46.113281-102.960938-102.960938v-10.078124c0-2.480469.078125-5.039063.320312-7.441407.378907-6.078125 1.34375-12.105469 2.878907-18 11.660156-45.582031 52.710937-77.480469 99.761719-77.519531h194.078124c56.847657.042969 102.917969 46.113281 102.960938 102.960938zm0 0" fill="#fff"/></svg>