<?xml version="1.0" encoding="iso-8859-1"?>
<!-- Generator: Adobe Illustrator 18.0.0, SVG Export Plug-In . SVG Version: 6.00 Build 0)  -->
<!DOCTYPE svg PUBLIC "-//W3C//DTD SVG 1.1//EN" "http://www.w3.org/Graphics/SVG/1.1/DTD/svg11.dtd">
<svg version="1.1" id="Capa_1" xmlns="http://www.w3.org/2000/svg" xmlns:xlink="http://www.w3.org/1999/xlink" x="0px" y="0px"
	 viewBox="0 0 174 174" style="enable-background:new 0 0 174 174;" xml:space="preserve">
<g>
	<defs>
		<ellipse id="SVGID_1_" cx="87" cy="87" rx="86.957" ry="87"/>
	</defs>
	<clipPath id="SVGID_2_">
		<use xlink:href="#SVGID_1_"  style="overflow:visible;"/>
	</clipPath>
	<ellipse style="clip-path:url(#SVGID_2_);fill:#F5994B;" cx="87" cy="87" rx="86.957" ry="87"/>
	<g style="clip-path:url(#SVGID_2_);">
		
			<ellipse transform="matrix(-0.3127 -0.9499 0.9499 -0.3127 2.6765 148.9153)" style="fill-rule:evenodd;clip-rule:evenodd;fill:#FFC785;" cx="55.215" cy="73.489" rx="7.934" ry="4.588"/>
		
			<ellipse transform="matrix(0.3129 -0.9498 0.9498 0.3129 13.0784 165.0577)" style="fill-rule:evenodd;clip-rule:evenodd;fill:#FFC785;" cx="120.618" cy="73.49" rx="7.934" ry="4.589"/>
		<path style="fill-rule:evenodd;clip-rule:evenodd;fill:#924A0B;" d="M67.227,33.076c-6.732,1.073-10.457,5.688-12.051,11.953
			c-4.15,16.307,4.537,51.674,34.609,52.095c15.506,0.218,26.677-3.726,30.746-16.276c4.069-12.553,5.739-32.778-3.105-44.114
			C106.297,22.472,82.939,22.338,67.227,33.076z"/>
		
			<path style="fill-rule:evenodd;clip-rule:evenodd;fill:#179E85;stroke:#179E85;stroke-width:1.0844;stroke-linecap:round;stroke-linejoin:round;stroke-miterlimit:10;" d="
			M75.248,116.21c-28.144,12.339-36.585,18.915-39.923,21.868c-5.143,4.551-8.162,22.106-11.195,36.509h63.672h63.674
			c-3.033-14.402-5.703-31.958-10.846-36.509c-3.337-2.953-11.471-9.361-39.613-21.699L75.248,116.21z"/>
		<path style="fill-rule:evenodd;clip-rule:evenodd;fill:#F5BE92;" d="M74.313,91.616v20.886v12.48
			c7.514,8.885,19.813,9.203,27.328,0v-12.48V91.616C101.641,74.771,74.313,74.771,74.313,91.616z"/>
		<path style="fill-rule:evenodd;clip-rule:evenodd;fill:#F5BE92;" d="M87.977,35.609c-45.863,0-29.369,59.754-26.374,64.166
			c3.304,4.863,18.964,13.42,26.374,13.42c7.41,0,23.07-9.64,26.374-14.505C117.346,94.279,133.84,35.609,87.977,35.609z"/>
		<path style="fill-rule:evenodd;clip-rule:evenodd;fill:#924A0B;" d="M65.645,50.008c8.058,4.899,14.292-2.41,21.568,0.725
			c7.277,3.135,28.148-5.363,32.443,27.762c6.886-24.023-4.74-44.141-30.998-45.284c-28.041-1.22-39.398,20.706-31.645,44.57
			C56.504,64.852,59.667,56.393,65.645,50.008z"/>
		
			<path style="fill-rule:evenodd;clip-rule:evenodd;fill:#FFFFFF;stroke:#FFFFFF;stroke-width:2;stroke-linecap:round;stroke-miterlimit:10;" d="
			M73.015,115.877l-9.691,5.244l14.053,19.48l10.662-10.115L73.015,115.877z"/>
		
			<path style="fill-rule:evenodd;clip-rule:evenodd;fill:#FFFFFF;stroke:#FFFFFF;stroke-width:2;stroke-linecap:round;stroke-miterlimit:10;" d="
			M103.063,115.877l9.691,5.244l-14.053,19.48L88.04,130.486L103.063,115.877z"/>
		<g>
			<g>
				<path style="fill:#924A0B;" d="M64.931,47.944c0.624,3.974,6.51,4.571,9.664,4.885c6.183,0.615,13.844-1.758,18.873-5.285
					c0.382-0.268,0.242-0.839-0.235-0.868c-5.357-0.335-10.218,3.412-15.596,3.863c-3.902,0.327-9.179-0.202-12.21-2.883
					C65.192,47.448,64.886,47.654,64.931,47.944L64.931,47.944z"/>
			</g>
		</g>
		<g>
			<g>
				<path style="fill:#FFFFFF;" d="M69.258,77.639c0,0,1.49,2.515,6.07,2.515c4.581,0,5.385-2.151,5.43-2.909
					c0,0-1.759-2.987-5.368-2.987C71.782,74.257,69.258,77.639,69.258,77.639z"/>
				<g>
					<g>
						<radialGradient id="SVGID_3_" cx="75.1333" cy="77.2056" r="2.615" gradientUnits="userSpaceOnUse">
							<stop  offset="0" style="stop-color:#2E4962"/>
							<stop  offset="0.0185" style="stop-color:#314E68"/>
							<stop  offset="0.1059" style="stop-color:#3C627D"/>
							<stop  offset="0.209" style="stop-color:#44728E"/>
							<stop  offset="0.3362" style="stop-color:#4A7D9A"/>
							<stop  offset="0.514" style="stop-color:#4D83A1"/>
							<stop  offset="1" style="stop-color:#4E85A3"/>
						</radialGradient>
						<circle style="fill:url(#SVGID_3_);" cx="75.133" cy="77.206" r="2.615"/>
						<path style="fill:#2E4962;" d="M75.133,74.854c1.297,0,2.353,1.055,2.353,2.351c0,1.297-1.055,2.352-2.353,2.352
							c-1.297,0-2.352-1.055-2.352-2.352C72.781,75.909,73.836,74.854,75.133,74.854 M75.133,74.328
							c-1.589,0-2.877,1.288-2.877,2.877c0,1.59,1.288,2.878,2.877,2.878c1.59,0,2.878-1.288,2.878-2.878
							C78.011,75.616,76.723,74.328,75.133,74.328L75.133,74.328z"/>
					</g>
					<circle cx="75.133" cy="77.205" r="1.202"/>
				</g>
			</g>
			<g>
				<path style="fill:#FFFFFF;" d="M106.556,77.639c0,0-1.489,2.515-6.07,2.515c-4.581,0-5.384-2.151-5.43-2.909
					c0,0,1.759-2.987,5.368-2.987C104.032,74.257,106.556,77.639,106.556,77.639z"/>
				<g>
					<g>
						
							<radialGradient id="SVGID_4_" cx="456.7087" cy="77.2056" r="2.6151" gradientTransform="matrix(-1 0 0 1 557.3896 0)" gradientUnits="userSpaceOnUse">
							<stop  offset="0" style="stop-color:#2E4962"/>
							<stop  offset="0.0185" style="stop-color:#314E68"/>
							<stop  offset="0.1059" style="stop-color:#3C627D"/>
							<stop  offset="0.209" style="stop-color:#44728E"/>
							<stop  offset="0.3362" style="stop-color:#4A7D9A"/>
							<stop  offset="0.514" style="stop-color:#4D83A1"/>
							<stop  offset="1" style="stop-color:#4E85A3"/>
						</radialGradient>
						<circle style="fill:url(#SVGID_4_);" cx="100.681" cy="77.206" r="2.615"/>
						<path style="fill:#2E4962;" d="M100.681,74.854c1.297,0,2.353,1.055,2.353,2.351c0,1.297-1.055,2.352-2.353,2.352
							c-1.297,0-2.352-1.055-2.352-2.352C98.328,75.909,99.384,74.854,100.681,74.854 M100.681,74.328
							c-1.589,0-2.878,1.288-2.878,2.877c0,1.59,1.288,2.878,2.878,2.878c1.589,0,2.878-1.288,2.878-2.878
							C103.559,75.616,102.27,74.328,100.681,74.328L100.681,74.328z"/>
					</g>
					<circle cx="100.681" cy="77.205" r="1.202"/>
				</g>
			</g>
			<g>
				<g>
					<path style="fill:#E48F67;" d="M82.863,89.699c-0.716,0.435-0.869,1.168-0.129,1.701c1.237,0.892,2.997,0.974,4.461,0.973
						c1.536-0.001,3.36-0.137,4.694-0.978c0.683-0.43,1.163-1.815,0.206-2.236c-0.181-0.08-0.463,0.008-0.441,0.253
						c0.029,0.325,0.334,0.63,0.275,0.929c-0.079,0.396-0.675,0.617-0.995,0.74c-0.996,0.383-2.119,0.446-3.173,0.475
						c-0.935,0.025-5.768,0.093-4.765-1.724C83.043,89.749,82.949,89.647,82.863,89.699L82.863,89.699z"/>
				</g>
			</g>
			<g>
				<g>
					<path style="fill:#924A0B;" d="M64.118,67.08c5.655-0.83,11.084-1.645,16.339,1.309c0.507,0.285,0.946-0.472,0.454-0.776
						c-4.355-2.691-12.444-3.809-16.849-0.665C63.993,66.997,64.037,67.092,64.118,67.08L64.118,67.08z"/>
				</g>
			</g>
			<g>
				<g>
					<path style="fill:#924A0B;" d="M111.541,66.947c-4.405-3.144-12.493-2.027-16.848,0.665c-0.493,0.304-0.053,1.061,0.454,0.776
						c5.255-2.953,10.684-2.139,16.339-1.309C111.566,67.092,111.61,66.997,111.541,66.947L111.541,66.947z"/>
				</g>
			</g>
		</g>
		<g>
			<path style="fill-rule:evenodd;clip-rule:evenodd;fill:#FFFFFF;" d="M99.931,96.702c-6.665,3.999-16.329,5.332-23.326,0.999
				L99.931,96.702z"/>
		</g>
		<g>
			<path style="fill:#924A0B;" d="M107.631,44.198c-0.284,2.473-0.851,4.615-1.689,6.496c-0.518-0.814-1.61-1.191-2.392-0.547
				c-0.509-1.235-2.339-1.358-3.173-0.182c-0.123,0.173-0.222,0.356-0.337,0.532c-0.282-1.341-2.093-1.938-3.055-0.983
				c-0.006-0.042-0.01-0.083-0.017-0.125c-0.261-1.611-2.523-1.625-3.261-0.426c-0.554,0.9-1.056,1.82-1.526,2.754
				c-0.078-0.234-0.217-0.435-0.383-0.613c0.362-0.569,0.698-1.168,0.989-1.812c0.978-2.16-1.291-3.933-2.962-2.938
				c-0.363-0.182-0.811-0.21-1.253,0.02c-1.242,0.645-2.269,1.601-3.289,2.581c-0.261-0.473-0.798-0.794-1.354-0.584
				c-2.694,1.017-4.914,2.619-7.49,3.779c-0.008-0.132-0.023-0.259-0.05-0.377c-0.177-0.766-1.04-1.209-1.773-1.007
				c-0.232,0.063-0.448,0.203-0.627,0.382c-0.003-0.004-0.006-0.008-0.009-0.012c-0.023,0.026-0.041,0.053-0.062,0.079
				c-0.005,0.006-0.009,0.012-0.014,0.017c-0.055,0.067-0.106,0.136-0.151,0.204c-0.005,0.01-0.01,0.018-0.016,0.027
				c-0.046,0.072-0.089,0.146-0.127,0.222c-0.166-0.1-0.358-0.163-0.573-0.183c0.371-0.365,0.713-0.753,1.016-1.17
				c0.464-0.639-0.309-1.657-1.05-1.366c-0.229,0.09-0.445,0.208-0.668,0.311c0.447-0.664,0.792-1.372,0.962-2.126
				c0.122-0.543-0.169-1.045-0.6-1.262c-0.191-0.434-0.734-0.718-1.21-0.429c-3.593,2.176-6.517,5.405-9.943,7.878
				c-0.496,0.171-1,0.309-1.515,0.388c-0.617,0.096-0.743,0.859-0.439,1.304c-0.03,0.027-0.062,0.051-0.09,0.081
				c-0.412,0.441-0.806,0.898-1.199,1.354c0.243-0.4,0.356-0.897,0.234-1.474c-0.018-0.108-0.035-0.217-0.052-0.326
				c-0.024-0.388-0.17-0.77-0.387-1.102c0.457-0.607,0.902-1.229,1.325-1.871c0.613-0.931-0.564-1.949-1.459-1.459
				c-0.508,0.278-0.995,0.591-1.472,0.919c1.598-3.062,3.824-5.805,6.364-8.108c4.132-3.748,8.3-3.687,13.41-2.688
				c1.4,0.274,1.998-1.379,0.927-2.199c-1.599-1.225-3.276-1.845-4.969-2.013c3.012-0.357,6.098-0.053,9,1.028
				c0.98,0.365,1.955-0.738,1.672-1.672c-1.329-4.394-7.236-3.768-10.813-3.252c-3.27,0.472-6.479,1.539-9.388,3.126
				c-0.301-0.041-0.636,0.005-0.988,0.17c-1.708,0.802-3.463,1.671-3.497,1.692C43.58,46.198,42.83,77.281,48.878,83.626
				c0.005,0.079,1.858,2.212,2.542,0.925c1.732-3.259,2.235-6.881,4.319-10.022c2.038-3.072,5.511-4.628,8.931-5.564
				c6.69-1.832,13.896-1.681,20.729-2.802c11.05-1.812,27.25-8.006,24.096-22.216C109.245,42.817,107.745,43.21,107.631,44.198z
				 M76.18,58.414c0.022-0.007,0.045-0.014,0.067-0.021c-0.019,0.019-0.039,0.037-0.058,0.056
				C76.188,58.437,76.182,58.426,76.18,58.414z M93.458,58.66c0.021-0.015,0.044-0.028,0.065-0.044
				c0.003,0.01,0.009,0.018,0.013,0.027C93.51,58.649,93.484,58.654,93.458,58.66z"/>
			<path style="fill:#924A0B;" d="M127.456,47.079c-0.635-4.015-4.042-10.229-8.889-7.283c-0.618,0.375-0.525,1.369,0.203,1.557
				c0.642,0.165,1.209,0.38,1.735,0.621c-0.232,0.267-0.317,0.646-0.078,1.037c1.525,2.489,1.964,5.105,2.08,7.797
				c-0.109,0.202-0.18,0.44-0.186,0.724c-0.069,3.242-0.933,6.673-0.574,9.875c0.059,0.524,0.479,0.95,0.945,1.086
				c-0.903,3.466-1.701,6.652-1.558,8.914c0.072,1.148,1.546,1.302,1.941,0.263C125.92,64.188,128.735,55.155,127.456,47.079z"/>
		</g>
	</g>
</g>
<g>
</g>
<g>
</g>
<g>
</g>
<g>
</g>
<g>
</g>
<g>
</g>
<g>
</g>
<g>
</g>
<g>
</g>
<g>
</g>
<g>
</g>
<g>
</g>
<g>
</g>
<g>
</g>
<g>
</g>
</svg>
