<?xml version="1.0" encoding="iso-8859-1"?>
<!-- Generator: Adobe Illustrator 18.0.0, SVG Export Plug-In . SVG Version: 6.00 Build 0)  -->
<!DOCTYPE svg PUBLIC "-//W3C//DTD SVG 1.1//EN" "http://www.w3.org/Graphics/SVG/1.1/DTD/svg11.dtd">
<svg version="1.1" id="Capa_1" xmlns="http://www.w3.org/2000/svg" xmlns:xlink="http://www.w3.org/1999/xlink" x="0px" y="0px"
	 viewBox="0 0 174 174" style="enable-background:new 0 0 174 174;" xml:space="preserve">
<g>
	<defs>
		<ellipse id="SVGID_1_" cx="87" cy="87" rx="86.956" ry="87"/>
	</defs>
	<clipPath id="SVGID_2_">
		<use xlink:href="#SVGID_1_"  style="overflow:visible;"/>
	</clipPath>
	<ellipse style="clip-path:url(#SVGID_2_);fill:#E54D73;" cx="87" cy="87" rx="86.956" ry="87"/>
	<g style="clip-path:url(#SVGID_2_);">
		<path style="fill-rule:evenodd;clip-rule:evenodd;fill:#924A0B;" d="M122.312,143.229c6.907-78.84,0.601-107.808-34.362-106.854
			c-45.547,1.243-45.285,40.41-33.086,109.453C75.143,143.749,107.444,142.952,122.312,143.229z"/>
		
			<path style="fill-rule:evenodd;clip-rule:evenodd;fill:#179E85;stroke:#179E85;stroke-width:1.1223;stroke-linecap:round;stroke-linejoin:round;stroke-miterlimit:10;" d="
			M98.715,128.507c-0.265,0.416-26.249,0.83-26.537,1.24c-8.161,11.643-25.796,16.744-39.817,19.879
			c-13.953,3.121-14.493,20.846-14.514,32.65h136.029c-0.021-11.805-0.28-29.467-14.517-32.65
			C125.125,146.442,106.459,140.681,98.715,128.507z"/>
		<path style="fill-rule:evenodd;clip-rule:evenodd;fill:#FFC785;" d="M72.232,103.643v22.356v11.033
			c-4.732,8.926,8.563,37.258,13.713,37.195c4.777-0.059,17.946-26.025,13.546-37.195v-11.035v-22.354
			C99.491,85.614,72.232,85.614,72.232,103.643z"/>
		<path style="fill-rule:evenodd;clip-rule:evenodd;fill:#FFC785;" d="M121.949,88.433c-2.736-1.174-6.602,1.707-8.63,6.43
			c-2.031,4.729-1.462,9.51,1.273,10.686c2.735,1.172,6.598-1.707,8.63-6.436C125.252,94.39,124.685,89.608,121.949,88.433z"/>
		<path style="fill-rule:evenodd;clip-rule:evenodd;fill:#FFC785;" d="M49.746,88.433c2.736-1.174,6.599,1.705,8.631,6.43
			c2.03,4.729,1.46,9.51-1.275,10.686c-2.734,1.172-6.598-1.705-8.629-6.436C46.441,94.39,47.011,89.608,49.746,88.433z"/>
		<path style="fill-rule:evenodd;clip-rule:evenodd;fill:#924A0B;" d="M51.499,92.423c-6.907-37.859,15.476-49.871,34.362-49.871
			c21.273,0,43.263,16.314,33.086,51.119c-20.279-0.998-38.817-13.01-56.735-36.762C59.161,68.976,57.101,84.657,51.499,92.423z"/>
		<path style="fill-rule:evenodd;clip-rule:evenodd;fill:#FFC785;" d="M85.861,126.739c-8.872,0-27.617-13.951-33.412-33.93
			c-5.854-20.178,5.166-49.115,33.412-49.115c28.244,0,39.268,28.938,33.414,49.115C113.48,112.788,94.735,126.739,85.861,126.739z"
			/>
		<g>
			<g>
				<path style="fill:#FFFFFF;" d="M66.737,87.164c0,0,1.489,2.516,6.07,2.516c4.58,0,5.384-2.151,5.43-2.909
					c0,0-1.76-2.988-5.368-2.988C69.26,83.783,66.737,87.164,66.737,87.164z"/>
				<g>
					<g>
						
							<radialGradient id="SVGID_3_" cx="72.2764" cy="86.6904" r="2.4406" gradientTransform="matrix(1.0716 0 0 1.0717 -4.8395 -6.1742)" gradientUnits="userSpaceOnUse">
							<stop  offset="0" style="stop-color:#2E6232"/>
							<stop  offset="0.0185" style="stop-color:#326834"/>
							<stop  offset="0.1059" style="stop-color:#407D3E"/>
							<stop  offset="0.209" style="stop-color:#4B8E45"/>
							<stop  offset="0.3362" style="stop-color:#529A4A"/>
							<stop  offset="0.514" style="stop-color:#57A14D"/>
							<stop  offset="1" style="stop-color:#58A34E"/>
						</radialGradient>
						<circle style="fill:url(#SVGID_3_);" cx="72.611" cy="86.732" r="2.616"/>
						<path style="fill:#2E6232;" d="M72.611,84.379c1.298,0,2.353,1.055,2.353,2.353c0,1.297-1.056,2.353-2.353,2.353
							c-1.296,0-2.351-1.055-2.351-2.353C70.26,85.435,71.314,84.379,72.611,84.379 M72.611,83.854
							c-1.589,0-2.877,1.289-2.877,2.878c0,1.59,1.288,2.878,2.877,2.878c1.59,0,2.879-1.289,2.879-2.878
							C75.49,85.142,74.201,83.854,72.611,83.854L72.611,83.854z"/>
					</g>
					<circle cx="72.611" cy="86.732" r="1.202"/>
				</g>
			</g>
			<g>
				<path style="fill:#FFFFFF;" d="M104.034,87.164c0,0-1.489,2.516-6.07,2.516c-4.58,0-5.384-2.151-5.43-2.909
					c0,0,1.76-2.987,5.368-2.987S104.034,87.164,104.034,87.164z"/>
				<g>
					<g>
						
							<radialGradient id="SVGID_4_" cx="-6.3061" cy="86.7321" r="2.6151" gradientTransform="matrix(-1 0 0 1 91.8526 0)" gradientUnits="userSpaceOnUse">
							<stop  offset="0" style="stop-color:#2E6232"/>
							<stop  offset="0.0185" style="stop-color:#326834"/>
							<stop  offset="0.1059" style="stop-color:#407D3E"/>
							<stop  offset="0.209" style="stop-color:#4B8E45"/>
							<stop  offset="0.3362" style="stop-color:#529A4A"/>
							<stop  offset="0.514" style="stop-color:#57A14D"/>
							<stop  offset="1" style="stop-color:#58A34E"/>
						</radialGradient>
						<path style="fill:url(#SVGID_4_);" d="M98.16,89.347c-1.442,0-2.616-1.173-2.616-2.615s1.174-2.615,2.616-2.615
							c1.441,0,2.614,1.173,2.614,2.615S99.601,89.347,98.16,89.347z"/>
						<path style="fill:#2E6232;" d="M98.16,84.38c1.297,0,2.351,1.055,2.351,2.352c0,1.297-1.055,2.352-2.351,2.352
							c-1.298,0-2.353-1.055-2.353-2.352C95.806,85.435,96.862,84.38,98.16,84.38 M98.16,83.854c-1.591,0-2.879,1.288-2.879,2.877
							c0,1.589,1.288,2.878,2.879,2.878c1.588,0,2.877-1.289,2.877-2.878C101.037,85.143,99.748,83.854,98.16,83.854L98.16,83.854z"
							/>
					</g>
					<circle cx="98.16" cy="86.732" r="1.202"/>
				</g>
			</g>
			<g>
				<g>
					<path style="fill:#E48F67;" d="M80.341,97.225c-0.716,0.435-0.869,1.168-0.129,1.701c1.237,0.892,2.997,0.974,4.461,0.973
						c1.536-0.001,3.36-0.138,4.694-0.978c0.683-0.43,1.163-1.815,0.206-2.236c-0.181-0.08-0.463,0.008-0.441,0.253
						c0.029,0.325,0.334,0.63,0.275,0.929c-0.079,0.396-0.675,0.617-0.995,0.74c-0.996,0.383-2.119,0.446-3.173,0.475
						c-0.935,0.025-5.768,0.093-4.765-1.724C80.521,97.275,80.427,97.173,80.341,97.225L80.341,97.225z"/>
				</g>
			</g>
			<g>
				<g>
					<path style="fill:#924A0B;" d="M61.59,80.584c5.517-1.25,11.304-1.717,16.419,1.204c0.34,0.194,0.639-0.32,0.306-0.523
						c-4.5-2.739-12.105-3.576-16.762-0.77C61.504,80.524,61.537,80.596,61.59,80.584L61.59,80.584z"/>
				</g>
			</g>
			<g>
				<g>
					<path style="fill:#924A0B;" d="M109.007,80.494c-4.657-2.805-12.261-1.969-16.761,0.77c-0.333,0.203-0.034,0.717,0.306,0.523
						c5.115-2.921,10.902-2.454,16.418-1.204C109.023,80.596,109.055,80.524,109.007,80.494L109.007,80.494z"/>
				</g>
			</g>
		</g>
		<path style="fill:#924A0B;" d="M121.478,74.456c0.982,0,0.982-1.523,0-1.523c-0.397,0-0.625,0.25-0.701,0.546
			c-0.488-2.468-1.091-4.902-1.732-7.273c0.157-0.448,0.149-0.959-0.129-1.462c-1.575-2.847-3.406-5.505-5.384-8.056
			c-0.728-1.508-1.791-2.85-2.485-4.41c-0.4-0.899-1.183-1.087-1.888-0.852c-0.454-0.516-0.91-1.03-1.37-1.541
			c-0.559-0.622-1.212-0.72-1.772-0.509c-0.624-0.691-1.267-1.369-1.955-2.013c-0.399-0.374-0.827-0.541-1.233-0.559
			c-0.137-0.199-0.275-0.396-0.411-0.596c-0.881-1.3-2.342-1.114-3.1-0.251c-0.142-0.143-0.271-0.293-0.418-0.433
			c-0.544-0.52-1.34-0.612-2.037-0.411c-1.08-1.09-2.274-2.066-3.645-2.861c-1.065-0.619-2.033-0.197-2.524,0.595
			c-0.534-0.362-1.188-0.315-1.737-0.028c-0.095-0.156-0.197-0.306-0.291-0.463c-0.768-1.163-2.242-0.869-2.853-0.013
			c-0.223-0.042-0.445-0.085-0.67-0.123c-0.404-0.406-0.807-0.814-1.237-1.2c-0.941-0.843-2.309-0.414-2.711,0.579
			c-0.904-0.158-1.819-0.347-2.744-0.609c-1.376-0.391-2.349,0.886-2.189,2.024c-0.027,0.009-0.055,0.016-0.082,0.026
			c-1.888,0.048-3.977,0.696-4.691,1.806c-0.416,0.356-0.658,0.906-0.46,1.5c0.083,0.249,0.179,0.49,0.265,0.737
			c-0.184-0.217-0.355-0.443-0.545-0.656c-0.95-1.067-2.225-0.182-2.372,0.927c-0.668-0.198-1.406,0.23-1.668,0.889
			c-0.175-0.168-0.333-0.348-0.514-0.511c-0.941-0.846-2.766-0.045-2.278,1.326c0.219,0.615,0.47,1.212,0.73,1.804
			c-0.199-0.264-0.395-0.529-0.596-0.791c-0.974-1.271-2.783-0.228-2.141,1.251c0.139,0.319,0.293,0.629,0.44,0.942
			c-0.146,0.197-0.229,0.432-0.243,0.681c-0.02-0.022-0.039-0.045-0.059-0.068c-0.771-0.862-1.97-0.055-1.944,0.897
			c-0.113-0.122-0.221-0.247-0.336-0.367c-0.877-0.918-2.412,0.269-1.751,1.352c0.292,0.478,0.598,0.946,0.896,1.419
			c-0.152,0.062-0.287,0.162-0.406,0.281c-0.006-0.007-0.012-0.015-0.018-0.022c-0.786-0.959-2.303,0.276-1.688,1.302
			c0.266,0.443,0.55,0.874,0.826,1.31c-0.373-0.376-0.752-0.747-1.147-1.103c-0.942-0.851-2.142,0.206-1.669,1.288
			c0.145,0.331,0.31,0.645,0.474,0.96c-0.295,0.24-0.468,0.609-0.313,1.031c0.091,0.247,0.195,0.48,0.296,0.716
			c-0.52-0.006-0.98,0.41-1.042,0.92c-0.57,0.015-1.023,0.631-0.74,1.214c0.022,0.198,0.093,0.399,0.271,0.587
			c-0.256-0.061-0.532-0.047-0.773,0.062c-0.729-0.597-1.437-1.236-2.131-1.9c-0.12-0.115-0.357-0.002-0.294,0.171
			c0.443,1.222,0.993,2.268,1.627,3.164c-1.801,6.05-2.635,12.457-1.818,18.734c-0.001,0.019-0.002,0.037-0.003,0.055
			c0.003,0,0.005-0.001,0.008-0.001c0.005,0.041,0.007,0.082,0.013,0.123c-0.132,4.614,0.584,9.067,3.429,12.912
			c0.383,0.518,1.163,0.762,1.66,0.214c2.641-2.912,1.821-7.013,1.211-10.569c-1.052-6.133-1.26-12.312-1.3-18.527
			c6.75,3.932,17.557-0.113,24.422-2.775c9.003-3.491,25.365-7.473,34.419-0.967c0.043,0.041,0.079,0.083,0.123,0.125
			c0.127,0.119,0.263,0.207,0.401,0.282c0.257,0.203,0.509,0.414,0.752,0.636c0.175,0.191,0.347,0.386,0.526,0.574
			c0.062,0.064,0.127,0.113,0.191,0.166c0.068,1.504,0.186,3.005,0.326,4.504c0.031,4.108-0.434,8.321-0.459,12.321
			c-0.006,0.925-0.538,5.611-0.601,6.65c-0.099,1.658,0.286,3.772,1.467,5.014c0.769,0.81,1.971,0.417,2.514-0.422
			c0.148-0.229,0.97-1.113,1.078-1.463c1.96-6.307,1.595-13.02,0.37-19.536C121.041,74.354,121.225,74.456,121.478,74.456z"/>
		<g>
			<path style="fill:#F0463A;" d="M95.342,111.478c0,0-7.689-4.668-8.817-3.204c-0.067,0.087-0.128,0.174-0.182,0.26
				c-0.055-0.086-0.116-0.173-0.182-0.26c-1.127-1.464-8.819,3.204-8.819,3.204s4.263,4.029,9.015,3.937
				c4.897,0.183,8.966-3.937,8.966-3.937c-0.004,0-0.006,0-0.007,0C95.332,111.478,95.342,111.478,95.342,111.478z M91.842,111.478
				c0,0-2.727,1.063-5.731,1.099c-1.802,0.022-3.617-0.595-5.241-1.282c0,0,2.521-1.17,5.461-1.186
				C88.171,110.098,90.162,111.021,91.842,111.478z"/>
			<path style="fill:#FFFFFF;" d="M86.332,110.108c-2.94,0.016-5.461,1.186-5.461,1.186c1.624,0.688,3.439,1.304,5.241,1.282
				c3.004-0.036,5.731-1.099,5.731-1.099C90.162,111.021,88.171,110.098,86.332,110.108z"/>
		</g>
	</g>
</g>
<g>
</g>
<g>
</g>
<g>
</g>
<g>
</g>
<g>
</g>
<g>
</g>
<g>
</g>
<g>
</g>
<g>
</g>
<g>
</g>
<g>
</g>
<g>
</g>
<g>
</g>
<g>
</g>
<g>
</g>
</svg>
